<svg width="132" height="21" viewBox="0 0 132 21" fill="none" xmlns="http://www.w3.org/2000/svg">
<path d="M16.3186 2H2L10.0542 11.1119L16.3186 2Z" stroke="black" stroke-width="2.27797" stroke-linejoin="round"/>
<path d="M2 19.5729V2L17.2949 19.5729H2Z" stroke="black" stroke-width="2.27797" stroke-linejoin="round"/>
<path d="M28.5018 18V3.19322H37.9147V5.01234H30.744V9.62359H37.2801V11.4004H30.744V16.1809H37.9147V18H28.5018ZM45.6627 18V3.19322H50.845C52.0014 3.19322 52.9603 3.39064 53.7218 3.78549C54.4833 4.16624 55.0473 4.69505 55.414 5.37193C55.7947 6.03471 55.9851 6.78915 55.9851 7.63525C55.9851 8.43905 55.8018 9.17939 55.4351 9.85627C55.0826 10.5191 54.5256 11.0479 53.7641 11.4427C53.0026 11.8376 52.0296 12.035 50.845 12.035H47.9048V18H45.6627ZM47.9048 10.1947H50.7393C51.7969 10.1947 52.5513 9.96908 53.0026 9.51783C53.4679 9.05247 53.7006 8.42495 53.7006 7.63525C53.7006 6.81736 53.4679 6.18278 53.0026 5.73152C52.5513 5.26617 51.7969 5.03349 50.7393 5.03349H47.9048V10.1947ZM63.2779 18V3.19322H65.5201V18H63.2779ZM80.4336 18.2538C78.9671 18.2538 77.6838 17.9295 76.5839 17.2808C75.4839 16.6321 74.6237 15.7367 74.0033 14.5944C73.3828 13.4381 73.0726 12.1055 73.0726 10.5966C73.0726 9.08773 73.3828 7.76217 74.0033 6.61993C74.6237 5.46359 75.4839 4.56108 76.5839 3.91241C77.6838 3.26373 78.9671 2.93939 80.4336 2.93939C81.9002 2.93939 83.1835 3.26373 84.2834 3.91241C85.3833 4.56108 86.2365 5.46359 86.8429 6.61993C87.4633 7.76217 87.7736 9.08773 87.7736 10.5966C87.7736 12.1055 87.4633 13.4381 86.8429 14.5944C86.2365 15.7367 85.3833 16.6321 84.2834 17.2808C83.1835 17.9295 81.9002 18.2538 80.4336 18.2538ZM80.4336 16.2443C81.449 16.2443 82.3303 16.0187 83.0777 15.5675C83.8392 15.1162 84.4315 14.4675 84.8545 13.6214C85.2776 12.7753 85.4891 11.7671 85.4891 10.5966C85.4891 9.42617 85.2776 8.4179 84.8545 7.5718C84.4315 6.72569 83.8392 6.07702 83.0777 5.62576C82.3303 5.17451 81.449 4.94888 80.4336 4.94888C79.4183 4.94888 78.5299 5.17451 77.7684 5.62576C77.0069 6.07702 76.4147 6.72569 75.9916 7.5718C75.5827 8.4179 75.3782 9.42617 75.3782 10.5966C75.3782 11.7671 75.5827 12.7753 75.9916 13.6214C76.4147 14.4675 77.0069 15.1162 77.7684 15.5675C78.5299 16.0187 79.4183 16.2443 80.4336 16.2443ZM95.348 18V3.19322H97.5902L105.015 14.3406V3.19322H107.257V18H105.015L97.5902 6.85261V18H95.348ZM115.339 18V3.19322H124.752V5.01234H117.581V9.62359H124.117V11.4004H117.581V16.1809H124.752V18H115.339Z" fill="black"/>
</svg>
