<svg width="18" height="18" viewBox="0 0 18 18" fill="none" xmlns="http://www.w3.org/2000/svg">
<path d="M10.6067 11.6681L10.1432 11.4124C9.59227 11.1086 8.92444 11.1068 8.37198 11.4078L8.11113 11.5499" stroke="#6582BE" stroke-width="0.736968" stroke-linecap="round"/>
<path d="M17.6182 8.65938C17.6182 13.2354 13.8762 16.9503 9.25358 16.9503C4.631 16.9503 0.888992 13.2354 0.888992 8.65938C0.888992 4.08338 4.631 0.368484 9.25358 0.368484C13.8762 0.368484 17.6182 4.08338 17.6182 8.65938Z" stroke="#6582BE" stroke-width="0.736968"/>
<circle cx="12.9751" cy="7.73818" r="0.994907" fill="#6582BE" stroke="#6582BE" stroke-width="0.0736968"/>
<path d="M11.1326 7.40654L11.6521 7.30516C12.2696 7.18468 12.7829 6.75746 13.0135 6.17213L13.1224 5.89575" stroke="#6582BE" stroke-width="0.736968" stroke-linecap="round"/>
<circle cx="5.53176" cy="7.73818" r="0.994907" fill="#6582BE" stroke="#6582BE" stroke-width="0.0736968"/>
<path d="M5.31082 6.11775L5.60723 6.55637C5.95948 7.07762 6.55335 7.3831 7.18224 7.36655L7.47919 7.35873" stroke="#6582BE" stroke-width="0.736968" stroke-linecap="round"/>
</svg>
