<svg width="19" height="18" viewBox="0 0 19 18" fill="none" xmlns="http://www.w3.org/2000/svg">
<path d="M17.7439 8.65938C17.7439 13.2354 14.0019 16.9503 9.37932 16.9503C4.75673 16.9503 1.01472 13.2354 1.01472 8.65938C1.01472 4.08338 4.75673 0.368484 9.37932 0.368484C14.0019 0.368484 17.7439 4.08338 17.7439 8.65938Z" stroke="#6582BE" stroke-width="0.736968"/>
<circle cx="13.1008" cy="7.73818" r="0.994907" fill="#6582BE" stroke="#6582BE" stroke-width="0.0736968"/>
<circle cx="5.65749" cy="7.73818" r="0.994907" fill="#6582BE" stroke="#6582BE" stroke-width="0.0736968"/>
<path d="M5.8861 10.9622C5.8861 9.29945 7.45007 10.9163 9.37933 10.9163C11.3086 10.9163 12.8726 9.29945 12.8726 10.9622C12.8726 12.625 11.3086 13.9729 9.37933 13.9729C7.45007 13.9729 5.8861 12.625 5.8861 10.9622Z" fill="#6582BE"/>
</svg>
